# xmcd
#
# Track frame offsets:
#	150
#	13050
#	26026
#	47158
#	64832
#	79905
#	104129
#
# Disc length: 1544 seconds
#
# Revision: 1
# Processed by: cddbd v1.5.2PL0 Copyright (c) Steve Scherf et al.
# Submitted via: audiograbber 1.83.01
#
DISCID=5e060607
DTITLE=Doyle Lawson and Quicksilver - Drive Time
DYEAR=2011
DGENRE=Bluegrass
TTITLE0=Gone At Last
TTITLE1=Country Store
TTITLE2=Leavin' And Lovin' You
TTITLE3=Love One Arrival
TTITLE4=The Greenbrier Hop
TTITLE5=Precious Memories
TTITLE6=Gone Long Gone
EXTD=
EXTT0=
EXTT1=
EXTT2=
EXTT3=
EXTT4=
EXTT5=
EXTT6=
PLAYORDER=
